<svg width="84" height="84" viewBox="0 0 84 84" fill="none" xmlns="http://www.w3.org/2000/svg">
<path d="M27.8757 29.8413C34.5311 31.6246 38.4813 38.4656 36.6982 45.121C34.9149 51.7765 28.0731 55.7266 21.4176 53.9432C14.7623 52.1597 10.813 45.3182 12.5963 38.6629C14.3798 32.0077 21.2205 28.0582 27.8757 29.8413Z" stroke="white"/>
<path d="M55.4163 53.9432C48.7609 52.1599 44.8107 45.3189 46.5938 38.6635C48.3771 32.008 55.2189 28.0579 61.8744 29.8413C68.5296 31.6248 72.479 38.4662 70.6957 45.1216C68.9122 51.7768 62.0715 55.7263 55.4163 53.9432Z" stroke="white"/>
<path d="M28.5075 41.5165L19.4978 41.5228" stroke="white" stroke-linecap="round" stroke-linejoin="round"/>
<path d="M24.4717 46L19.4978 41.5228L23.5336 37.0393" stroke="white" stroke-linecap="round" stroke-linejoin="round"/>
<path d="M54.7845 42.2679L63.7942 42.2616" stroke="white" stroke-linecap="round" stroke-linejoin="round"/>
<path d="M58.8203 37.7844L63.7942 42.2616L59.7584 46.7451" stroke="white" stroke-linecap="round" stroke-linejoin="round"/>
</svg>
