<svg width="218" height="56" viewBox="0 0 218 56" fill="none" xmlns="http://www.w3.org/2000/svg">
<g clip-path="url(#clip0_15_1688)">
<path d="M52.463 2.67563C52.463 1.2102 51.2965 0.0171696 49.8637 0.0171696H20.6218C17.0618 -0.175922 14.4255 1.31364 13.7242 1.77568C13.2826 1.99981 10.2654 3.48937 7.44703 1.77568C4.66914 0.106819 2.04633 -0.0966165 0 0.175781V6.0099C1.05856 5.76164 2.75429 5.64786 4.58149 6.75124C10.4171 10.2648 16.2999 6.90985 16.5628 6.77537C16.6066 6.75124 16.6943 6.68572 16.7381 6.66159C16.8696 6.57194 19.779 4.67895 23.4131 6.75124C25.6381 8.01323 27.8396 8.44079 29.8016 8.44079C31.2344 8.44079 32.5188 8.21322 33.5909 7.91324V10.7234C32.3705 11.2234 29.4813 12.0785 26.5652 10.4441C20.3757 6.95123 15.1772 9.85794 14.1423 10.5338C13.7006 10.7579 10.6834 12.2475 7.86506 10.5338C4.88827 8.75801 2.09353 8.64423 0 9.00627V14.93C0.991139 14.6128 2.90599 14.2749 4.9793 15.5369C10.8149 19.0505 16.6977 15.6955 16.9606 15.561C17.0044 15.5369 17.0921 15.4714 17.1359 15.4473C17.2674 15.3576 20.1768 13.4646 23.8109 15.5369C26.0359 16.7989 28.2374 17.2265 30.1994 17.2265C31.4636 17.2265 32.5997 17.0403 33.5909 16.8023V19.5125C32.3705 20.0159 29.4813 20.8883 26.5652 19.2332C20.3757 15.7403 15.1772 18.6471 14.1423 19.3229C13.7006 19.547 10.6834 21.0331 7.86506 19.3229C4.91187 17.5437 2.09353 17.4299 0.00337122 17.7678V23.6916C0.994511 23.3744 2.90936 23.0399 4.98267 24.2984C10.3463 27.5258 15.7402 24.957 16.7887 24.4122V55.993H44.4529V49.4831H49.5199C51.1482 49.4831 52.4731 48.1315 52.4731 46.4626V35.515H54.9408C56.3736 35.515 57.54 34.322 57.54 32.8565L52.4731 2.66873L52.463 2.67563ZM46.2532 24.7088C43.6978 24.7088 41.6278 22.7054 41.6278 22.7054C41.6278 22.7054 43.6978 20.7021 46.2532 20.7021C48.8086 20.7021 50.8785 22.7054 50.8785 22.7054C50.8785 22.7054 48.8086 24.7088 46.2532 24.7088Z" fill="white"/>
<path d="M72.538 1.61711C73.4483 1.42747 74.2641 1.33092 75.0091 1.28265C75.7542 1.25851 76.2936 1.23438 76.6408 1.23438C77.342 1.23438 78.0871 1.30678 78.8557 1.42402C79.6243 1.5447 80.3256 1.80675 80.956 2.18604C81.5864 2.56878 82.1224 3.11702 82.5438 3.83421C82.9652 4.55141 83.1742 5.47894 83.1742 6.62715V29.0085H90.8505C92.0406 29.0085 93.0182 29.1533 93.7666 29.4637C94.5117 29.774 95.0949 30.1809 95.4927 30.6808C95.8905 31.1808 96.1703 31.7325 96.3085 32.3497C96.4501 32.9704 96.5175 33.5427 96.5175 34.1151C96.5175 34.6151 96.4939 35.1426 96.4703 35.715C96.4231 36.2633 96.3995 36.908 96.3524 37.6252H72.5347V1.61711H72.538Z" fill="white"/>
<path d="M117.936 29.436C119.126 29.436 120.107 29.5808 120.876 29.8877C121.644 30.198 122.251 30.6049 122.672 31.1049C123.09 31.6048 123.374 32.1531 123.535 32.7737C123.697 33.3944 123.768 33.9909 123.768 34.6115C123.768 35.2322 123.768 35.7322 123.744 36.1149C123.721 36.5218 123.697 37.0217 123.674 37.6183H98.875V1.49634H122.858C122.929 2.21354 122.976 2.78591 123.02 3.18934C123.043 3.59621 123.067 4.12031 123.067 4.71683C123.067 5.31334 122.972 5.934 122.811 6.53051C122.625 7.12703 122.345 7.65113 121.924 8.15455C121.503 8.63038 120.919 9.03725 120.198 9.34758C119.453 9.6579 118.543 9.80272 117.4 9.80272H109.515V15.2438H119.662V23.4743H109.515V29.4394H117.936V29.436Z" fill="white"/>
<path d="M128.154 27.1224C129.482 28.0534 130.885 28.8396 132.331 29.4844C133.777 30.1292 135.365 30.4636 137.044 30.4636C139.424 30.4636 140.614 29.4844 140.614 27.5052C140.614 26.9569 140.472 26.5018 140.193 26.0742C139.913 25.6674 139.539 25.2881 139.073 24.9777C138.608 24.6433 138.049 24.3571 137.395 24.1192C136.74 23.8571 136.043 23.6192 135.318 23.3572C134.199 22.9986 133.056 22.571 131.937 22.0676C130.794 21.5676 129.742 20.8987 128.811 20.0401C127.854 19.2057 127.085 18.1299 126.502 16.8679C125.895 15.6025 125.615 14.006 125.615 12.0958C125.615 10.1856 125.99 8.49255 126.735 7.06161C127.48 5.6548 128.484 4.46177 129.745 3.53079C130.982 2.59981 132.429 1.90675 134.06 1.45506C135.692 0.999913 137.374 0.786133 139.144 0.786133C141.571 0.786133 143.625 1.07232 145.327 1.62056C147.029 2.16881 148.22 2.69291 148.921 3.14806C149.622 3.62389 150.158 4.10317 150.532 4.60314C150.906 5.10311 151.092 5.72376 151.092 6.44096C151.092 7.15815 150.883 7.92018 150.485 8.73047C150.087 9.54077 149.437 10.5683 148.503 11.8337C147.872 11.3579 147.195 10.9752 146.45 10.6166C145.705 10.2821 144.98 9.97177 144.258 9.73386C143.534 9.4718 142.836 9.3063 142.182 9.16148C141.504 9.0408 140.944 8.97184 140.456 8.97184C139.289 8.97184 138.403 9.16148 137.772 9.56835C137.142 9.97522 136.815 10.5235 136.815 11.2372C136.815 12.0027 137.165 12.5957 137.887 13.0509C138.612 13.5026 139.589 13.9336 140.85 14.3612C142.016 14.768 143.207 15.1956 144.491 15.699C145.752 16.199 146.895 16.8679 147.943 17.6782C148.971 18.5126 149.834 19.5643 150.485 20.8263C151.163 22.0917 151.486 23.7123 151.486 25.6949C151.486 27.8431 151.136 29.7257 150.461 31.3498C149.784 32.9704 148.806 34.3082 147.569 35.3806C146.332 36.4529 144.838 37.2666 143.159 37.7666C141.457 38.2907 139.589 38.5528 137.56 38.5528C135.041 38.5528 132.918 38.3149 131.191 37.8356C129.465 37.3597 128.137 36.8115 127.203 36.1908C126.573 35.784 126.108 35.3081 125.781 34.7358C125.454 34.1634 125.315 33.5427 125.315 32.8979C125.315 32.0394 125.619 31.0843 126.202 30.0361C126.762 29.0327 127.439 28.0569 128.161 27.1259" fill="white"/>
<path d="M162.864 10.2786H152.763C152.693 9.56136 152.645 8.94071 152.602 8.4166C152.554 7.8925 152.554 7.34425 152.554 6.7236C152.554 6.15122 152.672 5.55471 152.881 4.90992C153.09 4.28927 153.441 3.71689 153.906 3.21692C154.372 2.71695 155.002 2.31008 155.75 1.97562C156.495 1.64116 157.453 1.49634 158.572 1.49634H183.418C183.489 2.21354 183.536 2.87901 183.58 3.45484C183.603 4.05135 183.627 4.64787 183.627 5.26852C183.627 5.88917 183.533 6.48569 183.371 7.0822C183.185 7.67872 182.882 8.20282 182.461 8.6821C182.019 9.15793 181.436 9.54067 180.687 9.82686C179.942 10.1372 179.032 10.2786 177.889 10.2786H173.527V37.6217H162.891V10.2786H162.867H162.864Z" fill="white"/>
<path d="M217.171 19.5368C217.171 22.1849 216.844 24.6675 216.19 26.9812C215.536 29.2948 214.534 31.3223 213.159 33.0429C211.783 34.76 210.034 36.122 207.863 37.0978C205.715 38.077 203.126 38.577 200.166 38.577C197.206 38.577 194.637 38.077 192.537 37.0978C190.437 36.1185 188.711 34.76 187.359 33.067C186.007 31.374 185.026 29.3431 184.419 27.0294C183.812 24.7158 183.509 22.2332 183.509 19.5851C183.509 16.937 183.86 14.6233 184.537 12.3545C185.215 10.0891 186.263 8.08233 187.662 6.38933C189.061 4.69633 190.835 3.33435 192.982 2.33441C195.13 1.33102 197.672 0.831055 200.611 0.831055C203.551 0.831055 205.975 1.30689 208.075 2.262C210.175 3.21711 211.901 4.52738 213.23 6.19969C214.561 7.86855 215.563 9.85119 216.193 12.1166C216.847 14.3613 217.174 16.8404 217.174 19.5368M206.396 19.5851C206.396 18.2265 206.278 16.9128 206.069 15.6474C205.86 14.3819 205.51 13.2855 205.044 12.3303C204.579 11.3752 203.972 10.6373 203.224 10.065C202.479 9.51673 201.592 9.23054 200.54 9.23054C199.421 9.23054 198.464 9.51673 197.672 10.065C196.879 10.6132 196.249 11.3787 195.757 12.3303C195.268 13.2855 194.917 14.3819 194.685 15.6474C194.452 16.9128 194.334 18.2231 194.334 19.5851C194.334 20.9471 194.449 22.3297 194.685 23.5917C194.917 24.8572 195.268 25.9778 195.733 26.957C196.198 27.9363 196.829 28.6983 197.601 29.2707C198.369 29.8431 199.303 30.1292 200.399 30.1292C201.494 30.1292 202.405 29.8431 203.197 29.2707C203.966 28.6983 204.596 27.9328 205.065 26.957C205.53 25.9778 205.88 24.8572 206.089 23.5917C206.275 22.3263 206.393 20.9677 206.393 19.5851" fill="white"/>
<path d="M78.5622 50.7279V48.8004H83.0493V54.4656C82.9381 54.6035 82.7662 54.7621 82.5335 54.938C82.3009 55.1138 81.9975 55.2793 81.6301 55.4379C81.2592 55.5965 80.8277 55.7276 80.3288 55.8345C79.8298 55.9413 79.2533 55.9965 78.6027 55.9965C77.6048 55.9965 76.7418 55.8276 76.0069 55.4965C75.2753 55.1621 74.6685 54.7035 74.1965 54.1173C73.7212 53.5311 73.3706 52.8312 73.1447 52.0209C72.9154 51.2106 72.8042 50.3245 72.8042 49.3659C72.8042 48.4073 72.9256 47.5488 73.1649 46.7488C73.4043 45.9489 73.7717 45.2523 74.2639 44.6627C74.7561 44.0697 75.3798 43.6076 76.1282 43.2732C76.88 42.9387 77.7666 42.7732 78.7881 42.7732C79.2938 42.7732 79.7793 42.8318 80.2479 42.9525C80.7165 43.0732 81.1311 43.2249 81.4952 43.4145C81.8593 43.6042 82.1526 43.8145 82.3717 44.0455C82.5942 44.28 82.7055 44.5145 82.7055 44.7558C82.7055 44.9696 82.6145 45.2075 82.4391 45.473C82.2605 45.7351 82.0481 45.9764 81.802 46.1902C81.6537 46.0523 81.4851 45.9075 81.2929 45.7558C81.1008 45.6041 80.885 45.4661 80.6457 45.3386C80.4063 45.2144 80.1332 45.1075 79.8332 45.0282C79.5298 44.9455 79.196 44.9041 78.8252 44.9041C78.1611 44.9041 77.6048 45.0317 77.1632 45.2834C76.7182 45.5351 76.3676 45.8661 76.1114 46.2764C75.8518 46.6867 75.6664 47.1557 75.5585 47.6832C75.4472 48.2108 75.3933 48.759 75.3933 49.3245C75.3933 49.9314 75.4506 50.5106 75.5686 51.0623C75.6866 51.6175 75.8754 52.1037 76.1417 52.5278C76.408 52.9484 76.762 53.2898 77.2138 53.5484C77.6621 53.807 78.2218 53.9346 78.8859 53.9346C79.2061 53.9346 79.4758 53.9104 79.6983 53.8587C79.9208 53.807 80.1029 53.7518 80.2512 53.6898C80.4232 53.6139 80.5648 53.5277 80.676 53.4243V50.721H78.5724L78.5622 50.7279Z" fill="white"/>
<path d="M94.8527 46.6455C94.8527 47.1627 94.7886 47.6247 94.6571 48.035C94.529 48.4454 94.3537 48.8005 94.1312 49.1039C93.9087 49.4074 93.6559 49.6591 93.3761 49.8591C93.0929 50.0591 92.803 50.2177 92.5063 50.3315L95.5539 55.5449C95.3213 55.6449 95.0752 55.7242 94.8156 55.7794C94.556 55.8346 94.3099 55.8621 94.0773 55.8621C93.6222 55.8621 93.2412 55.7622 92.9311 55.5587C92.6243 55.3553 92.3411 55.0312 92.0815 54.576L89.9745 50.9107H88.9598V55.6725H86.4111V43.0905C86.9674 43.0285 87.5304 42.9802 88.1102 42.9492C88.6867 42.9181 89.2126 42.9009 89.6812 42.9009C91.468 42.9009 92.776 43.2112 93.6053 43.825C94.4346 44.4422 94.8527 45.38 94.8527 46.6386M92.1928 46.8937C92.1928 46.1007 91.9905 45.5421 91.5826 45.2214C91.178 44.9008 90.6218 44.7387 89.9206 44.7387C89.6981 44.7387 89.5059 44.7456 89.3475 44.7594C89.1856 44.7697 89.0508 44.7835 88.9395 44.7973V49.1626H89.8093C90.5341 49.1626 91.114 48.9764 91.5455 48.604C91.977 48.2316 92.1928 47.6627 92.1928 46.8937Z" fill="white"/>
<path d="M108.227 49.3107C108.227 50.2175 108.123 51.0761 107.914 51.8898C107.705 52.7001 107.371 53.4139 106.916 54.0242C106.461 54.6345 105.874 55.1172 105.163 55.4689C104.448 55.8206 103.585 55.9999 102.577 55.9999C101.569 55.9999 100.73 55.8206 100.028 55.462C99.3271 55.1034 98.754 54.6173 98.309 54.007C97.864 53.3966 97.5437 52.6863 97.3381 51.8829C97.1358 51.0761 97.0347 50.2279 97.0347 49.3314C97.0347 48.4349 97.1459 47.6142 97.3684 46.8177C97.5909 46.0247 97.9348 45.3282 98.4034 44.7317C98.872 44.1317 99.462 43.6593 100.177 43.3042C100.891 42.9525 101.741 42.7766 102.725 42.7766C103.71 42.7766 104.532 42.9456 105.227 43.2869C105.921 43.6283 106.491 44.0903 106.936 44.673C107.381 45.2592 107.705 45.9488 107.914 46.7419C108.123 47.5349 108.227 48.3935 108.227 49.3107ZM105.621 49.3279C105.621 48.7245 105.571 48.1521 105.473 47.6108C105.375 47.0695 105.207 46.5936 104.974 46.1833C104.741 45.7764 104.438 45.4523 104.07 45.2109C103.7 44.9696 103.244 44.8523 102.705 44.8523C102.166 44.8523 101.66 44.973 101.272 45.2109C100.885 45.4523 100.571 45.7764 100.332 46.1833C100.092 46.5936 99.9171 47.0695 99.8126 47.6108C99.7081 48.1521 99.6541 48.7245 99.6541 49.3279C99.6541 49.9313 99.7047 50.5141 99.8126 51.0658C99.9171 51.6209 100.086 52.1105 100.322 52.5381C100.554 52.9656 100.864 53.307 101.245 53.5587C101.626 53.8104 102.095 53.938 102.648 53.938C103.201 53.938 103.669 53.8139 104.05 53.5587C104.431 53.307 104.738 52.9691 104.964 52.5381C105.19 52.1105 105.358 51.6209 105.463 51.0658C105.567 50.5141 105.618 49.9313 105.618 49.3279" fill="white"/>
<path d="M113.749 50.7451C113.749 51.2002 113.775 51.6071 113.833 51.9726C113.887 52.3381 113.998 52.6484 114.167 52.907C114.332 53.1656 114.564 53.3656 114.861 53.5104C115.158 53.6552 115.549 53.7277 116.031 53.7277C116.87 53.7277 117.46 53.4794 117.794 52.9829C118.128 52.4863 118.296 51.7898 118.296 50.8968V43.0387C118.408 43.0249 118.515 43.0145 118.627 43.0007C118.724 42.9869 118.819 42.9766 118.91 42.9628C119.001 42.949 119.092 42.9456 119.176 42.9456C119.345 42.9456 119.527 42.9628 119.716 43.0007C119.904 43.0387 120.083 43.1111 120.248 43.218C120.413 43.3248 120.548 43.4731 120.653 43.6628C120.757 43.8524 120.808 44.1041 120.808 44.4179V50.5761C120.808 50.8278 120.801 51.0795 120.791 51.3312C120.778 51.583 120.761 51.8416 120.737 52.1036C120.686 52.6346 120.562 53.1346 120.359 53.607C120.157 54.0794 119.861 54.4897 119.473 54.8345C119.085 55.1827 118.603 55.4551 118.027 55.6586C117.447 55.8586 116.766 55.962 115.98 55.962C115.195 55.962 114.507 55.8723 113.954 55.6965C113.401 55.5206 112.939 55.2655 112.572 54.931C112.205 54.5966 111.921 54.1862 111.726 53.7035C111.53 53.2173 111.395 52.6622 111.321 52.0312C111.294 51.8036 111.277 51.5726 111.264 51.3312C111.25 51.0933 111.247 50.8382 111.247 50.5761V43.0387C111.345 43.0249 111.449 43.0145 111.561 43.0007C111.658 42.9869 111.753 42.9766 111.844 42.9628C111.935 42.949 112.026 42.9456 112.11 42.9456C112.292 42.9456 112.481 42.9628 112.67 43.0007C112.859 43.0387 113.037 43.1111 113.202 43.218C113.368 43.3248 113.502 43.4731 113.607 43.6628C113.711 43.8524 113.762 44.1041 113.762 44.4179V50.7451H113.749Z" fill="white"/>
<path d="M132.681 46.742C132.681 47.5592 132.546 48.2522 132.273 48.8211C132 49.3866 131.632 49.8452 131.17 50.19C130.709 50.5348 130.169 50.7865 129.559 50.9383C128.949 51.09 128.302 51.1658 127.624 51.1658H126.734V55.6793H124.202V43.0974C124.758 43.0353 125.325 42.987 125.901 42.956C126.478 42.925 127.004 42.9077 127.472 42.9077C129.269 42.9077 130.587 43.2318 131.423 43.8801C132.263 44.5318 132.681 45.4834 132.681 46.742ZM130.095 46.873C130.095 46.1075 129.869 45.5593 129.428 45.2283C128.983 44.9007 128.413 44.7386 127.718 44.7386C127.321 44.7386 126.987 44.7593 126.714 44.7938V49.328H127.327C128.231 49.328 128.918 49.1487 129.387 48.7901C129.859 48.4315 130.095 47.7902 130.095 46.8695" fill="white"/>
</g>
<defs>
<clipPath id="clip0_15_1688">
<rect width="217.171" height="56" fill="white"/>
</clipPath>
</defs>
</svg>
