<svg width="19" height="9" viewBox="0 0 19 9" fill="none" xmlns="http://www.w3.org/2000/svg">
<path d="M7.9993 3.51278C7.7495 3.63915 6.04285 4.4771 4.44872 3.51278C2.76686 2.50957 1.18416 2.44541 -7.93878e-08 2.64955L-5.53719e-09 0.960049C0.598755 0.820067 1.55791 0.755909 2.59143 1.37805C5.89412 3.35919 9.21969 1.46748 9.36843 1.39166C9.39322 1.37805 9.4447 1.34111 9.46949 1.3275C9.54386 1.27695 11.1876 0.209591 13.2432 1.37805C14.5017 2.08963 15.7488 2.33071 16.8567 2.33071C17.669 2.33071 18.3936 2.20239 19 2.03325L19 3.61971C18.3097 3.90162 16.6736 4.38378 15.0261 3.46223C11.5251 1.49276 8.58471 3.13171 7.9993 3.51278Z" fill="white"/>
<path d="M7.9993 7.67484C7.7495 7.80099 6.04285 8.6375 4.44872 7.67484C2.7783 6.67337 1.18416 6.60932 -7.86569e-08 6.79952L-8.83627e-09 5.20221C0.560617 5.02365 1.64562 4.83345 2.81644 5.5438C6.11722 7.52151 9.4447 5.63308 9.59344 5.55738C9.61823 5.5438 9.6678 5.50692 9.69259 5.49334C9.76696 5.44287 11.4126 4.37735 13.4682 5.5438C14.7267 6.25415 15.9719 6.49481 17.0817 6.49481C17.7968 6.49481 18.4394 6.39001 19 6.25609L19 7.78159C18.3097 8.06495 16.6736 8.55598 15.0261 7.62438C11.5251 5.65831 8.58471 7.29444 7.9993 7.67484Z" fill="white"/>
</svg>
