<svg width="19" height="9" viewBox="0 0 19 9" fill="none" xmlns="http://www.w3.org/2000/svg">
<path d="M7.99942 3.51278C7.74962 3.63915 6.04298 4.4771 4.44884 3.51278C2.76698 2.50957 1.18428 2.44541 0.000121991 2.64955L0.000122065 0.960049C0.598877 0.820067 1.55803 0.755909 2.59155 1.37805C5.89424 3.35919 9.21981 1.46748 9.36855 1.39166C9.39334 1.37805 9.44482 1.34111 9.46961 1.3275C9.54398 1.27695 11.1877 0.209591 13.2433 1.37805C14.5018 2.08963 15.7489 2.33071 16.8568 2.33071C17.6691 2.33071 18.3937 2.20239 19.0001 2.03325L19.0001 3.61971C18.3098 3.90162 16.6737 4.38378 15.0262 3.46223C11.5252 1.49276 8.58483 3.13171 7.99942 3.51278Z" fill="#1E1E1E"/>
<path d="M7.99942 7.67478C7.74962 7.80093 6.04298 8.63744 4.44884 7.67478C2.77842 6.67331 1.18428 6.60926 0.000121992 6.79946L0.000122061 5.20215C0.56074 5.02359 1.64575 4.83339 2.81656 5.54374C6.11734 7.52145 9.44482 5.63302 9.59356 5.55732C9.61835 5.54374 9.66793 5.50686 9.69272 5.49328C9.76708 5.44281 11.4127 4.37729 13.4683 5.54374C14.7268 6.25409 15.972 6.49475 17.0818 6.49475C17.7969 6.49475 18.4395 6.38994 19.0001 6.25603L19.0001 7.78153C18.3098 8.06489 16.6737 8.55592 15.0262 7.62432C11.5252 5.65825 8.58483 7.29437 7.99942 7.67478Z" fill="#1E1E1E"/>
</svg>
